<?xml version="1.0" encoding="UTF-8"?>
<svg id="Layer_1" data-name="Layer 1" xmlns="http://www.w3.org/2000/svg" viewBox="0 0 394.78 76.43">
  <defs>
    <style>
      .cls-1 {
        fill: #4ad295;
      }

      .cls-2 {
        fill: #fff;
        stroke: #4ad295;
        stroke-miterlimit: 10;
      }
    </style>
  </defs>
  <path id="Path" class="cls-2" d="M156.58,69.4h-11.3V7.1h11.3v62.3Zm49.6,0h-11v-4.6c-3.06,3.79-7.74,5.9-12.6,5.7-11.6,0-20.3-9.5-20.3-22.1s8.8-22.1,20.3-22.1c4.88-.17,9.56,1.98,12.6,5.8v-4.6h11v41.9Zm-32.4-21c0,6.4,4.2,11.6,10.8,11.6s10.8-4.9,10.8-11.6-4.4-11.6-10.8-11.6-10.7,5.2-10.7,11.6h-.1ZM262.48,13.7c0,3.98-3.22,7.2-7.2,7.2s-7.2-3.22-7.2-7.2,3.22-7.2,7.2-7.2,7.2,3.22,7.2,7.2Zm-1.5,55.7h-11.4V27.4h11.4v42Z"/>
  <path id="path1" class="cls-2" d="M139.58,17.8c-2.51-1.12-5.26-1.6-8-1.4-3.2,.4-4.9,2-4.9,5.9v5.1h13v10.1h-13v32h-11.3V37.5h-7.8v-10h7.8v-5.3c0-9.9,5.2-16.3,15-16.3,3.19-.04,6.36,.57,9.3,1.8l-.1,10.1Z"/>
  <path id="path2" class="cls-2" d="M235.08,60c-3.5,0-6.3-1.9-6.3-7.1v-15.4h15.2v-10h-15.2V15h-11.3v12.5h-5.7v10h5.7v16.2c0,10.9,5.3,16.8,15.7,16.8,3.75,.06,7.46-.79,10.8-2.5l-4.3-9.1c-1.45,.66-3.01,1.03-4.6,1.1Zm113.8-11.6c0,12.6-9.7,22.1-22.7,22.1s-22.7-9.4-22.7-22.1,9.6-22.1,22.7-22.1,22.7,9.5,22.7,22.1Zm-33.9,0c0,6.8,4.8,11.6,11.1,11.6s11.2-4.8,11.2-11.6-4.8-11.6-11.2-11.6-11,4.8-11,11.6h-.1Zm79.3-5.7v26.7h-11.4v-23.1c0-6.1-3-9.4-8.2-9.4s-8.9,3.2-8.9,9.5v23h-11.2V27.4h11v4.9c3-4.5,7.6-6.1,12.3-6.1,9.6,.1,16.4,6.8,16.4,16.5Z"/>
  <path id="path3" class="cls-2" d="M297.98,55.7c-2.09,2.4-5.03,3.91-8.2,4.2h-.9l-1.8-.2c-3.24-.54-6-2.63-7.4-5.6-.83-1.82-1.24-3.8-1.2-5.8-.04-2.04,.41-4.06,1.3-5.9,1.46-2.94,4.25-5,7.5-5.5h2.4c3.23,.19,6.23,1.71,8.3,4.2l5.5-9.6c-2.33-2.04-5.1-3.52-8.1-4.3-1.99-.53-4.04-.8-6.1-.8-2.54-.01-5.07,.36-7.5,1.1-2.98,.92-5.71,2.49-8,4.6-4.48,4.26-6.95,10.22-6.8,16.4-.15,6.13,2.28,12.04,6.7,16.3,2.29,2.11,5.02,3.68,8,4.6,2.49,.8,5.09,1.2,7.7,1.2,2.09,0,4.18-.26,6.2-.8,3.01-.82,5.78-2.32,8.1-4.4l-5.7-9.7Z"/>
  <path id="path4" class="cls-1" d="M46.28,26.5H26.88l-6.1-10.5h31.6L61.58,0H9.38C6.03,0,2.93,1.79,1.28,4.7-.43,7.6-.43,11.2,1.28,14.1l33.3,57.7c1.69,2.87,4.77,4.63,8.1,4.63s6.41-1.76,8.1-4.63l1.1-1.9-15.3-26.6,9.7-16.8Z"/>
  <path id="path5" class="cls-1" d="M84.18,4.7C82.52,1.79,79.42,0,76.08,0h-2.3l-25,43.3,9.2,16L84.18,14c1.66-2.88,1.66-6.42,0-9.3Z"/>
</svg>