<?xml version="1.0" standalone="no"?>
<!DOCTYPE svg PUBLIC "-//W3C//DTD SVG 20010904//EN"
 "http://www.w3.org/TR/2001/REC-SVG-20010904/DTD/svg10.dtd">
<svg version="1.0" xmlns="http://www.w3.org/2000/svg"
 width="512.000000pt" height="512.000000pt" viewBox="0 0 512.000000 512.000000"
 preserveAspectRatio="xMidYMid meet">
<metadata>
Created by potrace 1.16, written by Peter Selinger 2001-2019
</metadata>
<g transform="translate(0.000000,512.000000) scale(0.100000,-0.100000)"
fill="#000000" stroke="none">
<path d="M2310 5114 c-447 -54 -825 -190 -1167 -420 -164 -110 -255 -185 -393
-324 -139 -138 -214 -229 -324 -393 -204 -302 -340 -651 -403 -1032 -26 -158
-26 -612 0 -770 63 -381 199 -730 403 -1032 110 -164 185 -255 324 -393 138
-139 229 -214 393 -324 302 -204 651 -340 1032 -403 88 -14 166 -18 385 -18
219 0 297 4 385 18 381 63 730 199 1032 403 164 110 255 185 393 324 139 138
214 229 324 393 204 302 340 651 403 1032 26 158 26 612 0 770 -63 381 -199
730 -403 1032 -110 164 -185 255 -324 393 -138 139 -229 214 -393 324 -295
199 -631 332 -1002 398 -85 15 -169 20 -370 23 -143 1 -276 1 -295 -1z m500
-494 c867 -107 1586 -760 1774 -1610 36 -164 46 -262 46 -450 0 -188 -10 -286
-46 -450 -172 -779 -795 -1402 -1574 -1574 -164 -36 -262 -46 -450 -46 -188 0
-286 10 -450 46 -779 172 -1402 795 -1574 1574 -36 164 -46 262 -46 450 0 188
10 286 46 450 172 779 794 1401 1574 1574 64 14 147 30 185 35 100 12 415 13
515 1z"/>
<path d="M2320 3985 c-307 -52 -560 -183 -781 -404 -282 -283 -419 -616 -419
-1021 0 -405 137 -738 419 -1021 281 -280 616 -418 1016 -419 236 0 440 48
636 149 129 66 271 161 265 177 -4 10 -235 324 -282 382 -1 2 -30 -15 -64 -38
-84 -57 -197 -112 -300 -146 -80 -27 -94 -28 -260 -28 -161 0 -182 3 -263 27
-318 98 -546 325 -644 644 -25 82 -27 100 -27 273 0 173 2 191 27 273 98 319
329 550 644 643 107 32 314 43 433 25 167 -26 329 -104 446 -213 l65 -62 180
180 180 179 -58 53 c-195 177 -481 308 -770 351 -95 14 -348 12 -443 -4z"/>
</g>
</svg>
