<svg xmlns="http://www.w3.org/2000/svg" width="512" height="512" viewBox="0 0 24 24"><path d="M5 0h14a5.006 5.006 0 0 1 5 5v14a5.006 5.006 0 0 1-5 5H5a5.006 5.006 0 0 1-5-5V5a5.006 5.006 0 0 1 5-5Zm14 22a3 3 0 0 0 3-3V5a3 3 0 0 0-3-3H5a3 3 0 0 0-3 3v14a3 3 0 0 0 3 3ZM12 8a2.993 2.993 0 0 1 1.987.752c.327.291.637.574.84.777l2.873 2.824a1 1 0 1 1-1.4 1.426l-2.88-2.829a20.855 20.855 0 0 0-.759-.7 1 1 0 0 0-1.323 0c-.29.258-.57.512-.752.693L7.7 13.779a1 1 0 0 1-1.4-1.426l2.878-2.829c.2-.2.507-.48.833-.769A2.99 2.99 0 0 1 12 8Z"/></svg>