<svg xmlns="http://www.w3.org/2000/svg" width="512" height="512" data-name="Layer 1" viewBox="0 0 24 24"><path d="M7 14a1 1 0 0 1-1 1H5a1 1 0 0 1 0-2h1a1 1 0 0 1 1 1zm4-1h-1a1 1 0 0 0 0 2h1a1 1 0 0 0 0-2zm-5 4H5a1 1 0 0 0 0 2h1a1 1 0 0 0 0-2zm5 0h-1a1 1 0 0 0 0 2h1a1 1 0 0 0 0-2zM6 5H5a1 1 0 0 0 0 2h1a1 1 0 0 0 0-2zm5 0h-1a1 1 0 0 0 0 2h1a1 1 0 0 0 0-2zM6 9H5a1 1 0 0 0 0 2h1a1 1 0 0 0 0-2zm5 0h-1a1 1 0 0 0 0 2h1a1 1 0 0 0 0-2zm13 1v9a5.006 5.006 0 0 1-5 5H5a5.006 5.006 0 0 1-5-5V5a5.006 5.006 0 0 1 5-5h6a5.006 5.006 0 0 1 5 5h3a5.006 5.006 0 0 1 5 5zM5 22h9V5a3 3 0 0 0-3-3H5a3 3 0 0 0-3 3v14a3 3 0 0 0 3 3zm17-12a3 3 0 0 0-3-3h-3v15h3a3 3 0 0 0 3-3zm-3 3a1 1 0 1 0 1 1 1 1 0 0 0-1-1zm0 4a1 1 0 1 0 1 1 1 1 0 0 0-1-1zm0-8a1 1 0 1 0 1 1 1 1 0 0 0-1-1z"/></svg>