<svg xmlns="http://www.w3.org/2000/svg" width="512" height="512" data-name="Layer 1" viewBox="0 0 24 24"><path d="M17.994 2.286A9 9 0 0 0 3.075 7.822a8.938 8.938 0 0 0 2.793 7.761A6.263 6.263 0 0 1 8 20.149v.161A3.694 3.694 0 0 0 11.69 24h.62A3.694 3.694 0 0 0 16 20.31v-.549a5.323 5.323 0 0 1 1.932-4 8.994 8.994 0 0 0 .062-13.477zM12.31 22h-.62A1.692 1.692 0 0 1 10 20.31s-.007-.26-.008-.31H14v.31A1.692 1.692 0 0 1 12.31 22zm4.3-7.741A7.667 7.667 0 0 0 14.246 18H13v-7.184A3 3 0 0 0 15 8a1 1 0 0 0-2 0 1 1 0 0 1-2 0 1 1 0 0 0-2 0 3 3 0 0 0 2 2.816V18H9.678a8.634 8.634 0 0 0-2.448-3.881 7 7 0 0 1 3.951-12.073A7.452 7.452 0 0 1 12.009 2a6.921 6.921 0 0 1 4.652 1.778 6.993 6.993 0 0 1-.048 10.481z"/></svg>