<svg xmlns="http://www.w3.org/2000/svg" width="512" height="512" viewBox="0 0 24 24"><path d="M19 4h-.508l-2.184-2.832A3.023 3.023 0 0 0 13.932 0h-3.864a3.023 3.023 0 0 0-2.376 1.168L5.508 4H5a5.006 5.006 0 0 0-5 5v10a5.006 5.006 0 0 0 5 5h14a5.006 5.006 0 0 0 5-5V9a5.006 5.006 0 0 0-5-5ZM9.276 2.39a1.006 1.006 0 0 1 .792-.39h3.864a1.008 1.008 0 0 1 .792.39L15.966 4H8.034ZM22 19a3 3 0 0 1-3 3H5a3 3 0 0 1-3-3V9a3 3 0 0 1 3-3h14a3 3 0 0 1 3 3Z"/><path d="M12 8a6 6 0 1 0 6 6 6.006 6.006 0 0 0-6-6Zm0 10a4 4 0 1 1 4-4 4 4 0 0 1-4 4Z"/></svg>