<svg xmlns="http://www.w3.org/2000/svg" width="512" height="512" data-name="Layer 1" viewBox="0 0 24 24"><path d="M23.891 6.454a1 1 0 0 1-1.346.437L13.752 2.4a4.02 4.02 0 0 0-3.517.007l-8.78 4.48a1 1 0 0 1-.91-1.782L9.339.623a6.043 6.043 0 0 1 5.309-.007l8.807 4.493a1 1 0 0 1 .436 1.345Zm-1.813 6.666A7.022 7.022 0 0 1 23 16.594V18a4 4 0 0 1-2 3.463V22a2 2 0 0 1-4 0H7a2 2 0 0 1-4 0v-.537A4 4 0 0 1 1 18v-1.406a7.022 7.022 0 0 1 .922-3.474l2.058-3.6A5.013 5.013 0 0 1 8.321 7h7.358a5.013 5.013 0 0 1 4.341 2.52ZM3.723 14h16.554l-1.993-3.488A3.009 3.009 0 0 0 15.679 9H8.321a3.009 3.009 0 0 0-2.6 1.512ZM21 16.594a5.119 5.119 0 0 0-.036-.594H19v1a1 1 0 0 1-2 0v-1H7v1a1 1 0 0 1-2 0v-1H3.036a5.119 5.119 0 0 0-.036.594V18a2 2 0 0 0 2 2h14a2 2 0 0 0 2-2Z"/></svg>