<svg xmlns="http://www.w3.org/2000/svg" width="512" height="512" data-name="Layer 1" viewBox="0 0 24 24"><path d="M8 4c0-2.206-1.794-4-4-4S0 1.794 0 4a4.006 4.006 0 0 0 3 3.873v8.253a4.006 4.006 0 0 0-3 3.873c0 2.206 1.794 4 4 4s4-1.794 4-4a4.006 4.006 0 0 0-3-3.873V7.873A4.006 4.006 0 0 0 8 4ZM2 4c0-1.103.897-2 2-2s2 .897 2 2-.897 2-2 2-2-.897-2-2Zm4 16c0 1.103-.897 2-2 2s-2-.897-2-2 .897-2 2-2 2 .897 2 2Zm15-3.873V10a1 1 0 1 0-2 0v6.127A4.006 4.006 0 0 0 16 20c0 2.206 1.794 4 4 4s4-1.794 4-4a4.006 4.006 0 0 0-3-3.873ZM20 22c-1.103 0-2-.897-2-2s.897-2 2-2 2 .897 2 2-.897 2-2 2Zm3.707-15.707a.999.999 0 1 1-1.414 1.414L20 5.414l-2.293 2.293a.997.997 0 0 1-1.414 0 .999.999 0 0 1 0-1.414L18.586 4l-2.293-2.293A.999.999 0 1 1 17.707.293L20 2.586 22.293.293a.999.999 0 1 1 1.414 1.414L21.414 4l2.293 2.293Z"/></svg>