<svg xmlns="http://www.w3.org/2000/svg" width="512" height="512" data-name="Layer 1" viewBox="0 0 24 24"><path d="M10.5 17a2 2 0 0 1-1.416-.586L5.3 12.715a1 1 0 0 1 1.4-1.43l3.793 3.707 6.806-6.7a1 1 0 0 1 1.4 1.424l-6.793 6.707A1.983 1.983 0 0 1 10.5 17ZM24 19v-6.66A12.209 12.209 0 0 0 12.836.028 12 12 0 0 0 .029 12.854C.471 19.208 6.082 24 13.083 24H19a5.006 5.006 0 0 0 5-5ZM12.7 2.024A10.2 10.2 0 0 1 22 12.34V19a3 3 0 0 1-3 3h-5.917C7.049 22 2.4 18.1 2.025 12.716A10 10 0 0 1 12.016 2c.227 0 .456.009.684.024Z"/></svg>