<svg xmlns="http://www.w3.org/2000/svg" xml:space="preserve" width="512" height="512" style="enable-background:new 0 0 512 512"><path d="M256.07-.047C114.467-.047-.326 114.746-.326 256.349S114.467 512.744 256.07 512.744s256.395-114.792 256.395-256.395S397.673-.047 256.07-.047zm158.906 188.591 16.555-53.525a212.063 212.063 0 0 1 37.227 109.461l-45.696-32.192a21.333 21.333 0 0 1-8.086-23.744zM311.467 50.197h-.171l-42.667 31.061a21.333 21.333 0 0 1-25.088 0l-42.667-31.061a206.8 206.8 0 0 1 110.593 0zM80.469 135.04l16.555 53.504a21.334 21.334 0 0 1-8.085 23.744L43.243 244.48a211.996 211.996 0 0 1 37.226-109.44zm5.014 248.619 58.603.192a21.334 21.334 0 0 1 20.267 14.805l18.432 57.451a214.022 214.022 0 0 1-97.302-72.448zm243.754 72.448 18.411-57.451a21.332 21.332 0 0 1 20.245-14.805l58.624-.192a213.845 213.845 0 0 1-97.28 72.448zm122.368-115.2-83.84.277c-27.759.036-52.312 18.009-60.736 44.459l-26.347 82.133a196.326 196.326 0 0 1-49.365 0l-26.347-82.155c-8.434-26.449-32.996-44.413-60.757-44.437l-83.819-.256a211.521 211.521 0 0 1-14.059-46.421l67.179-47.339c22.708-15.938 32.521-44.72 24.277-71.211l-24.213-78.336a213.186 213.186 0 0 1 40.192-28.779l64.597 46.933c22.422 16.358 52.842 16.358 75.264 0l64.597-46.933a213.817 213.817 0 0 1 40.192 28.779l-24.213 78.336c-8.243 26.49 1.569 55.272 24.277 71.211l67.179 47.339a211.112 211.112 0 0 1-14.058 46.4z"/><path d="m328.235 196.779-40.896-29.696c-18.669-13.632-44.009-13.632-62.677 0l-40.896 29.696c-18.777 13.567-26.612 37.728-19.371 59.733l15.616 48.064c7.137 21.957 27.621 36.805 50.709 36.757h50.56c23.111.002 43.594-14.882 50.731-36.864l15.595-48.064c7.196-21.973-.635-46.078-19.371-59.626zm-21.206 46.442-15.595 48.064a10.666 10.666 0 0 1-10.155 7.381h-50.56a10.666 10.666 0 0 1-10.133-7.381L204.971 243.2a10.666 10.666 0 0 1 3.883-11.947l40.875-29.653a10.668 10.668 0 0 1 12.544 0l40.896 29.696a10.667 10.667 0 0 1 3.86 11.925z"/></svg>