<svg xmlns="http://www.w3.org/2000/svg" width="512" height="512" data-name="Layer 1" viewBox="0 0 24 24"><path d="M7 9.5c.039-3.29 2.961-3.29 3 0-.039 3.29-2.961 3.29-3 0Zm8.5 2.5c1.964-.027 1.964-4.973 0-5-1.964.027-1.964 4.973 0 5Zm8.5 0a12.013 12.013 0 0 1-12 12C-3.9 23.4-3.893.6 12 0a12.013 12.013 0 0 1 12 12Zm-2 0A10.011 10.011 0 0 0 12 2c-13.248.5-13.245 19.5 0 20a10.011 10.011 0 0 0 10-10Zm-5.211 2.024A15.4 15.4 0 0 1 12 15a15.4 15.4 0 0 1-4.8-.976 1 1 0 0 0-1.052 1.518A6.836 6.836 0 0 0 12 19a6.827 6.827 0 0 0 5.842-3.458 1 1 0 0 0-1.053-1.518Z"/></svg>