<svg xmlns="http://www.w3.org/2000/svg" width="512" height="512" data-name="Layer 1" viewBox="0 0 24 24"><path d="M23.27 16.245c.469.469.714 1.143.73 1.755-.015.612-.257 1.282-.723 1.747l-2.578 2.522a.997.997 0 0 1-1.414-.016 1 1 0 0 1 .016-1.414l1.881-1.84h-2.181c-1.654 0-3 1.346-3 3v1a1 1 0 1 1-2 0v-1c0-2.757 2.243-5 5-5h2.181l-1.881-1.84a1 1 0 0 1 1.398-1.43l2.57 2.515ZM15 2c-1.103 0-2 .897-2 2v14.5c0 3.032-2.468 5.5-5.5 5.5a5.464 5.464 0 0 1-5.233-3.835A4.978 4.978 0 0 1 0 16c0-.886.235-1.737.686-2.5A4.89 4.89 0 0 1 0 11c0-1.568.752-3.04 2-3.979V7a4.007 4.007 0 0 1 3.102-3.898A4.008 4.008 0 0 1 9 0c1.194 0 2.267.526 3 1.357A3.989 3.989 0 0 1 15 0a4.007 4.007 0 0 1 3.898 3.102A4.008 4.008 0 0 1 22 7v.021A4.99 4.99 0 0 1 24 11c0 .425-.056.848-.165 1.257a1 1 0 1 1-1.932-.515c.064-.242.097-.492.097-.743 0-1.07-.591-2.067-1.543-2.603a.999.999 0 0 1-.494-1.045c.02-.115.037-.231.037-.352 0-1.103-.897-2-2-2a1 1 0 0 1-1-1c0-1.103-.897-2-2-2Zm-4 2c0-1.103-.897-2-2-2s-2 .897-2 2a1 1 0 0 1-1 1c-1.103 0-2 .897-2 2 0 .121.018.237.037.352a.999.999 0 0 1-.494 1.045A3 3 0 0 0 2 11c0 .675.234 1.322.679 1.872a1 1 0 0 1 0 1.257A2.955 2.955 0 0 0 2 16c0 1.096.611 2.104 1.597 2.631.254.137.437.376.502.657A3.478 3.478 0 0 0 7.5 22c1.93 0 3.5-1.57 3.5-3.5V4Z"/></svg>