<svg xmlns="http://www.w3.org/2000/svg" width="512" height="512" data-name="Layer 1" viewBox="0 0 24 24"><path d="M24 7v1a1 1 0 1 1-2 0V7c0-1.654-1.346-3-3-3H5C3.346 4 2 5.346 2 7v10c0 1.654 1.346 3 3 3h3a1 1 0 1 1 0 2H5c-2.757 0-5-2.243-5-5V7c0-2.757 2.243-5 5-5h14c2.757 0 5 2.243 5 5Zm-9 2h4a1 1 0 1 0 0-2h-4a1 1 0 1 0 0 2Zm8.121 2.879c.566.566.879 1.32.879 2.121s-.313 1.555-.879 2.122l-6.707 6.707a3.975 3.975 0 0 1-2.828 1.172H12a1 1 0 0 1-1-1v-1.586c0-1.068.416-2.073 1.172-2.828l6.707-6.707a3.002 3.002 0 0 1 4.242 0ZM22 14a1 1 0 0 0-1.707-.707L13.586 20A2.017 2.017 0 0 0 13 21.414V22h.586c.534 0 1.036-.208 1.414-.586l6.707-6.707A.993.993 0 0 0 22 14ZM9 15H6.732c-.356 0-.688-.192-.867-.5a.996.996 0 0 0-1.366-.365.998.998 0 0 0-.364 1.366A3.008 3.008 0 0 0 6.733 17h.268a1 1 0 1 0 2 0c1.654 0 3-1.346 3-3 0-1.36-.974-2.51-2.315-2.733l-3.041-.507a.768.768 0 0 1-.644-.76c0-.551.448-1 1-1h2.268c.356 0 .688.192.867.5a.998.998 0 1 0 1.73-1.001 3.009 3.009 0 0 0-2.598-1.5H9a1 1 0 1 0-2 0c-1.654 0-3 1.346-3 3 0 1.36.974 2.51 2.315 2.733l3.041.507a.768.768 0 0 1 .644.76c0 .551-.448 1-1 1Zm5-3a1 1 0 1 0 2 0 1 1 0 0 0-2 0Z"/></svg>