<svg xmlns="http://www.w3.org/2000/svg" width="512" height="512" data-name="Layer 1" viewBox="0 0 24 24"><path d="m23 16.653-2.34-1.8a3.1 3.1 0 0 0-4.281.006l-1.469 1.168a12.781 12.781 0 0 1-6.931-6.945l1.158-1.456a3.1 3.1 0 0 0 .007-4.282L7.346 1A.989.989 0 0 0 7.26.9 3.081 3.081 0 0 0 2.934.859l-1.15 1c-7.719 8.21 12.2 28.145 20.4 20.3l.91-1.049a3.1 3.1 0 0 0 0-4.378 1.125 1.125 0 0 0-.094-.079Zm-1.364 3.1-.911 1.05C14.788 26.418-2.5 10.114 3.147 3.325l1.15-1a1.1 1.1 0 0 1 1.51-.039l1.786 2.323a.9.9 0 0 0 .086.1 1.1 1.1 0 0 1 0 1.549.849.849 0 0 0-.079.082L6.044 8.3a1 1 0 0 0-.145 1 15.009 15.009 0 0 0 8.822 8.811 1 1 0 0 0 .979-.152l1.96-1.559a.994.994 0 0 0 .084-.076 1.128 1.128 0 0 1 1.647.086l2.326 1.787a1.121 1.121 0 0 1-.085 1.557Zm2.071-13.46a1 1 0 0 1-1.414 1.414L20 5.414l-2.293 2.293a1 1 0 0 1-1.414-1.414L18.586 4l-2.293-2.293A1 1 0 0 1 17.707.293L20 2.586 22.293.293a1 1 0 0 1 1.414 1.414L21.414 4Z"/></svg>