<svg xmlns="http://www.w3.org/2000/svg" width="512" height="512" data-name="Layer 1" viewBox="0 0 24 24"><path d="M7 0H4C1.794 0 0 1.794 0 4v3c0 2.206 1.794 4 4 4h3c2.206 0 4-1.794 4-4V4c0-2.206-1.794-4-4-4Zm2 7c0 1.103-.897 2-2 2H4c-1.103 0-2-.897-2-2V4c0-1.103.897-2 2-2h3c1.103 0 2 .897 2 2v3ZM7 5v1a1 1 0 0 1-1 1H5a1 1 0 0 1-1-1V5a1 1 0 0 1 1-1h1a1 1 0 0 1 1 1Zm10 6h3c2.206 0 4-1.794 4-4V4c0-2.206-1.794-4-4-4h-3c-2.206 0-4 1.794-4 4v3c0 2.206 1.794 4 4 4Zm-2-7c0-1.103.897-2 2-2h3c1.103 0 2 .897 2 2v3c0 1.103-.897 2-2 2h-3c-1.103 0-2-.897-2-2V4Zm2 2V5a1 1 0 0 1 1-1h1a1 1 0 0 1 1 1v1a1 1 0 0 1-1 1h-1a1 1 0 0 1-1-1ZM7 13H4c-2.206 0-4 1.794-4 4v3c0 2.206 1.794 4 4 4h3c2.206 0 4-1.794 4-4v-3c0-2.206-1.794-4-4-4Zm2 7c0 1.103-.897 2-2 2H4c-1.103 0-2-.897-2-2v-3c0-1.103.897-2 2-2h3c1.103 0 2 .897 2 2v3Zm-2-2v1a1 1 0 0 1-1 1H5a1 1 0 0 1-1-1v-1a1 1 0 0 1 1-1h1a1 1 0 0 1 1 1Zm10-3.5v1a1.5 1.5 0 0 1-1.5 1.5h-1a1.5 1.5 0 0 1-1.5-1.5v-1a1.5 1.5 0 0 1 1.5-1.5h1a1.5 1.5 0 0 1 1.5 1.5Zm3 4a1.5 1.5 0 0 1-3 0 1.5 1.5 0 0 1 3 0Zm-3 3v1a1.5 1.5 0 0 1-1.5 1.5h-1a1.5 1.5 0 0 1-1.5-1.5v-1a1.5 1.5 0 0 1 1.5-1.5h1a1.5 1.5 0 0 1 1.5 1.5Zm7-7v1a1.5 1.5 0 0 1-1.5 1.5h-1a1.5 1.5 0 0 1-1.5-1.5v-1a1.5 1.5 0 0 1 1.5-1.5h1a1.5 1.5 0 0 1 1.5 1.5Z"/></svg>