<svg xmlns="http://www.w3.org/2000/svg" width="512" height="512" data-name="Layer 1" viewBox="0 0 24 24"><path d="M21.923 2.067C18.758-1.1 13.077-.569 9.258 3.248A10.6 10.6 0 0 0 6.02 10.9a13.291 13.291 0 0 0 .157 1.433c.149 1.571.129 3.938-.884 4.951l-5 5A1 1 0 1 0 1.707 23.7l5-5c1.025-1.023 3.433-1.033 5-.879a13.448 13.448 0 0 0 1.62.163 10.667 10.667 0 0 0 7.412-3.249c3.821-3.82 4.35-9.501 1.184-12.668Zm-.517 8.154-1.482-1.482L21.967 6.7a7.444 7.444 0 0 1-.561 3.521Zm-.1-5.689L18.51 7.325 16.584 5.4l2.753-2.753a4.838 4.838 0 0 1 1.172.835 4.831 4.831 0 0 1 .791 1.05ZM13.037 15.98l-.3-.051 2.241-2.241 1.568 1.568a7.685 7.685 0 0 1-3.509.724ZM8.01 10.951a7.7 7.7 0 0 1 .724-3.5l1.487 1.486-2.182 2.18-.029-.166Zm2.532 4.342a4.718 4.718 0 0 1-1.9-1.952l2.992-2.993 1.926 1.926Zm2.507-6.359 2.121-2.121 1.93 1.926-2.125 2.121Zm4.079-6.907L15.17 3.985l-1.4-1.4a7.7 7.7 0 0 1 2.891-.6c.162.003.312.031.467.042Zm-5.179 1.565L13.756 5.4l-2.121 2.12-1.842-1.841a9.381 9.381 0 0 1 2.156-2.087Zm-3.9 12.346c0-.014.005-.029.008-.043l.017.019.018.017Zm10.26-1.74-1.923-1.924 2.121-2.121 1.893 1.891a9.879 9.879 0 0 1-1.073 1.275 10.035 10.035 0 0 1-1.015.881Z"/></svg>