<svg xmlns="http://www.w3.org/2000/svg" width="512" height="512" viewBox="0 0 24 24"><path d="M18.581 2.14 12.316.051a1 1 0 0 0-.632 0L5.419 2.14A4.993 4.993 0 0 0 2 6.883V12c0 7.563 9.2 11.74 9.594 11.914a1 1 0 0 0 .812 0C12.8 23.74 22 19.563 22 12V6.883a4.993 4.993 0 0 0-3.419-4.743ZM20 12c0 5.455-6.319 9.033-8 9.889-1.683-.853-8-4.42-8-9.889V6.883a3 3 0 0 1 2.052-2.846L12 2.054l5.948 1.983A3 3 0 0 1 20 6.883Z"/><path d="M15 10h-2V8a1 1 0 0 0-2 0v2H9a1 1 0 0 0 0 2h2v2a1 1 0 0 0 2 0v-2h2a1 1 0 0 0 0-2Z"/></svg>