<svg xmlns="http://www.w3.org/2000/svg" xml:space="preserve" width="512" height="512" style="enable-background:new 0 0 512 512"><path d="M504.653 457.833a143.931 143.931 0 0 1-42.246-102.568V171.988c0-11.608-9.41-21.018-21.018-21.018s-21.018 9.41-21.018 21.018v84.072h-63.264v-.21c-.098-29.174-20.197-54.472-48.594-61.163l-49.75-111.291C232.007 13.932 110.144-3.155 105.1 87.748v42.204c-46.432 0-84.072 37.64-84.072 84.072v.105l.126 104.796c-34.561 47.089-24.406 113.28 22.683 147.841a105.756 105.756 0 0 0 61.263 20.492h168.144c58.395-.711 105.158-48.626 104.446-107.021a105.745 105.745 0 0 0-20.374-61.123v-21.018h63.054v57.169a185.651 185.651 0 0 0 54.647 132.203c7.55 8.817 20.819 9.843 29.635 2.293 8.817-7.55 9.844-20.819 2.293-29.635a21.027 21.027 0 0 0-2.292-2.293zM168.154 66.688a57.274 57.274 0 0 1 52.23 33.839l41.342 92.479H168.28c-11.608 0-21.018-9.41-21.018-21.018l-.126-84.282c0-11.608 9.41-21.018 21.018-21.018zM75.422 184.389a41.746 41.746 0 0 1 29.677-12.401v.105c.058 34.783 28.271 62.949 63.054 62.949h125.898c11.551 0 20.937 9.32 21.018 20.871v29.909a104.583 104.583 0 0 0-41.826-8.744H105.1a104.59 104.59 0 0 0-41.868 8.701l-.168-71.756a41.678 41.678 0 0 1 12.359-29.699l-.001.065zm197.822 260.834H105.1c-34.824 0-63.054-28.23-63.054-63.054s28.23-63.054 63.054-63.054h168.144c34.824 0 63.054 28.23 63.054 63.054s-28.23 63.054-63.054 63.054zm-147.126-63.054c0 11.608-9.41 21.018-21.018 21.018s-21.018-9.41-21.018-21.018 9.41-21.018 21.018-21.018 21.018 9.41 21.018 21.018zm168.144 0c0 11.608-9.41 21.018-21.018 21.018s-21.018-9.41-21.018-21.018 9.41-21.018 21.018-21.018c11.608-.001 21.018 9.41 21.018 21.018zm-84.072 0c0 11.608-9.41 21.018-21.018 21.018s-21.018-9.41-21.018-21.018 9.41-21.018 21.018-21.018 21.018 9.41 21.018 21.018z"/></svg>