<svg xmlns="http://www.w3.org/2000/svg" width="512" height="512" data-name="Layer 1" viewBox="0 0 24 24"><path d="M24 8a1.02 1.02 0 0 0-.038-.275L22.79 3.626A5.022 5.022 0 0 0 17.982 0H6.017a5.023 5.023 0 0 0-4.808 3.626L.039 7.725A1.02 1.02 0 0 0 0 8c0 1.012.378 1.937 1 2.643V20c0 2.206 1.794 4 4 4h6c2.206 0 4-1.794 4-4v-8.537a4.036 4.036 0 0 0 1-.82A3.989 3.989 0 0 0 19 12h1c.345 0 .68-.044 1-.127V23a1 1 0 1 0 2 0V10.643c.622-.705 1-1.631 1-2.643ZM11 22H5c-1.103 0-2-.897-2-2v-2h10v2c0 1.103-.897 2-2 2Zm2-6H3v-4.127c.32.083.655.127 1 .127h1a3.994 3.994 0 0 0 3-1.357A3.99 3.99 0 0 0 11 12h2v4Zm6-6c-1.103 0-2-.897-2-2a1 1 0 1 0-2 0c0 1.103-.897 2-2 2h-2c-1.103 0-2-.897-2-2a1 1 0 0 0-2 0c0 1.103-.897 2-2 2H4c-.49 0-.94-.178-1.288-.471a1.99 1.99 0 0 1-.708-1.402l1.128-3.951A3.013 3.013 0 0 1 6.017 2H7v2a1 1 0 0 0 2 0V2h6v2a1 1 0 1 0 2 0V2h.982c1.332 0 2.519.895 2.885 2.176l1.129 3.951A2.003 2.003 0 0 1 20 10.001h-1Z"/></svg>