<svg xmlns="http://www.w3.org/2000/svg" width="512" height="512" data-name="Layer 1" viewBox="0 0 24 24"><path d="M21 15a3 3 0 0 0-3 3v3a3 3 0 0 0 6 0v-3a3 3 0 0 0-3-3zm1 6a1 1 0 0 1-2 0v-3a1 1 0 0 1 2 0zM13 12V7a1 1 0 0 0-2 0v4H8a1 1 0 0 0 0 2h4a1 1 0 0 0 1-1z"/><path d="M23 2a1 1 0 0 0-1 1v2.374A12 12 0 1 0 7.636 23.182 1.015 1.015 0 0 0 8 23.25a1 1 0 0 0 .364-1.932A10 10 0 1 1 20.636 7H18a1 1 0 0 0 0 2h3a3 3 0 0 0 3-3V3a1 1 0 0 0-1-1z"/><path d="M15.383 15.076a1 1 0 0 0-1.09.217l-3 3a1 1 0 0 0 1.414 1.414L14 18.414V23a1 1 0 0 0 2 0v-7a1 1 0 0 0-.617-.924z"/></svg>