<svg xmlns="http://www.w3.org/2000/svg" width="512" height="512" data-name="Layer 1" viewBox="0 0 24 24"><path d="M19 4h-1.101A5.01 5.01 0 0 0 13 0h-2a5.009 5.009 0 0 0-4.899 4H5C2.243 4 0 6.243 0 9v10c0 2.757 2.243 5 5 5h14c2.757 0 5-2.243 5-5V9c0-2.757-2.243-5-5-5Zm-8-2h2c1.304 0 2.415.836 2.828 2H8.172A3.004 3.004 0 0 1 11 2ZM5 6h14c1.654 0 3 1.346 3 3v1h-3V9a1 1 0 1 0-2 0v1H7V9a1 1 0 1 0-2 0v1H2V9c0-1.654 1.346-3 3-3Zm14 16H5c-1.654 0-3-1.346-3-3v-7h3v1a1 1 0 1 0 2 0v-1h10v1a1 1 0 1 0 2 0v-1h3v7c0 1.654-1.346 3-3 3Z"/></svg>