<svg xmlns="http://www.w3.org/2000/svg" width="512" height="512" data-name="Layer 1" viewBox="0 0 24 24"><path d="M19 24h-1a1 1 0 0 1 0-2h1a3 3 0 0 0 3-3v-1a1 1 0 0 1 2 0v1a5.006 5.006 0 0 1-5 5zm5-18V5a5.006 5.006 0 0 0-5-5h-1a1 1 0 0 0 0 2h1a3 3 0 0 1 3 3v1a1 1 0 0 0 2 0zM7 23a1 1 0 0 0-1-1H5a3 3 0 0 1-3-3v-1a1 1 0 0 0-2 0v1a5.006 5.006 0 0 0 5 5h1a1 1 0 0 0 1-1zM2 6V5a3 3 0 0 1 3-3h1a1 1 0 0 0 0-2H5a5.006 5.006 0 0 0-5 5v1a1 1 0 0 0 2 0zm14 6a4 4 0 1 0-4 4 4 4 0 0 0 4-4zm-2 0a2 2 0 1 1-2-2 2 2 0 0 1 2 2z"/></svg>