<svg xmlns="http://www.w3.org/2000/svg" width="512" height="512" data-name="Layer 1" viewBox="0 0 24 24"><path d="M17 0H7C3.141 0 0 3.14 0 7v12c0 2.757 2.243 5 5 5h14c2.757 0 5-2.243 5-5V7c0-3.86-3.141-7-7-7Zm5 7v2h-2V3.003c1.214.913 2 2.365 2 3.997Zm-5-5c.342 0 .677.035 1 .101V9h-3c0-1.654-1.346-3-3-3S9 7.346 9 9H6V2.101A4.995 4.995 0 0 1 7 2h10Zm-6 7a1.001 1.001 0 0 1 2 0v3a1.001 1.001 0 0 1-2 0V9ZM4 3.003V9H2V7c0-1.632.786-3.084 2-3.997Zm16 18.825V14a1 1 0 1 0-2 0v8H6v-8a1 1 0 1 0-2 0v7.828A3.004 3.004 0 0 1 2 19v-8h7v1c0 1.654 1.346 3 3 3s3-1.346 3-3v-1h7v8a3.004 3.004 0 0 1-2 2.828Z"/></svg>