<svg xmlns="http://www.w3.org/2000/svg" width="512" height="512" data-name="Layer 1" viewBox="0 0 24 24"><path d="M19 5h-2.1A5.009 5.009 0 0 0 12 1H5a5.006 5.006 0 0 0-5 5v9a4 4 0 0 0 3.061 3.877 3.5 3.5 0 1 0 6.9.123h4.082a3.465 3.465 0 0 0-.041.5 3.5 3.5 0 0 0 7 0 3.4 3.4 0 0 0-.061-.623A4 4 0 0 0 24 15v-5a5.006 5.006 0 0 0-5-5Zm3 5v1h-5V7h2a3 3 0 0 1 3 3ZM2 15V6a3 3 0 0 1 3-3h7a3 3 0 0 1 3 3v11H4a2 2 0 0 1-2-2Zm6 4.5a1.5 1.5 0 0 1-3 0 1.418 1.418 0 0 1 .093-.5h2.814a1.418 1.418 0 0 1 .093.5Zm9.5 1.5a1.5 1.5 0 0 1-1.5-1.5 1.41 1.41 0 0 1 .093-.5h2.814a1.41 1.41 0 0 1 .093.5 1.5 1.5 0 0 1-1.5 1.5Zm2.5-4h-3v-4h5v2a2 2 0 0 1-2 2Z"/></svg>