<svg xmlns="http://www.w3.org/2000/svg" width="512" height="512" data-name="Layer 1" viewBox="0 0 24 24"><path d="M12 16a4 4 0 1 1 4-4 4 4 0 0 1-4 4Zm0-6a2 2 0 1 0 2 2 2 2 0 0 0-2-2Zm6 13a6 6 0 0 0-12 0 1 1 0 0 0 2 0 4 4 0 0 1 8 0 1 1 0 0 0 2 0Zm0-15a4 4 0 1 1 4-4 4 4 0 0 1-4 4Zm0-6a2 2 0 1 0 2 2 2 2 0 0 0-2-2Zm6 13a6.006 6.006 0 0 0-6-6 1 1 0 0 0 0 2 4 4 0 0 1 4 4 1 1 0 0 0 2 0ZM6 8a4 4 0 1 1 4-4 4 4 0 0 1-4 4Zm0-6a2 2 0 1 0 2 2 2 2 0 0 0-2-2ZM2 15a4 4 0 0 1 4-4 1 1 0 0 0 0-2 6.006 6.006 0 0 0-6 6 1 1 0 0 0 2 0Z"/></svg>